<svg width="34" height="34" viewBox="0 0 34 34" fill="none" xmlns="http://www.w3.org/2000/svg">
<path d="M17 2.83398C13.2883 2.83398 10.2708 5.85148 10.2708 9.56315C10.2708 13.204 13.1183 16.1507 16.83 16.2782C16.9433 16.264 17.0566 16.264 17.1416 16.2782C17.17 16.2782 17.1841 16.2782 17.2125 16.2782C17.2266 16.2782 17.2266 16.2782 17.2408 16.2782C20.8675 16.1507 23.715 13.204 23.7291 9.56315C23.7291 5.85148 20.7116 2.83398 17 2.83398Z" fill="#0C32DE"/>
<path d="M24.1967 20.0466C20.2442 17.4116 13.7983 17.4116 9.81751 20.0466C8.01834 21.2507 7.02667 22.8799 7.02667 24.6224C7.02667 26.3649 8.01834 27.9799 9.80334 29.1699C11.7867 30.5016 14.3933 31.1674 17 31.1674C19.6067 31.1674 22.2133 30.5016 24.1967 29.1699C25.9817 27.9657 26.9733 26.3507 26.9733 24.5941C26.9592 22.8516 25.9817 21.2366 24.1967 20.0466Z" fill="#0C32DE"/>
</svg>
