<svg width="40" height="40" viewBox="0 0 40 40" fill="none" xmlns="http://www.w3.org/2000/svg">
<g clip-path="url(#clip0_362_2091)">
<path d="M19.0547 1.08594L18.8281 1.3125V2.57031V3.82812H17.6172H16.4062L16.1562 4.05469L15.8984 4.28125L15.875 10.5391L15.8516 16.7969H12.8516H9.84375V15.4219V14.0469L9.61719 13.8203L9.39062 13.5938H6.36719C4.44531 13.5938 3.29688 13.625 3.19531 13.6719C2.79688 13.8906 2.8125 13.3047 2.8125 25.8594V37.5H1.82031C1.26562 37.5 0.695312 37.5391 0.539062 37.5781C0.171875 37.6797 0 37.9453 0 38.3906C0 38.6797 0.0390625 38.7656 0.242188 38.9375L0.484375 39.1406H20H39.5156L39.7578 38.9375C39.9609 38.7656 40 38.6797 40 38.3906C40 37.9453 39.8281 37.6797 39.4609 37.5781C39.3047 37.5391 38.6641 37.5 38.0312 37.5H36.875L36.8594 31.1016C36.8359 24.7344 36.8359 24.6953 36.6719 24.4766C36.3672 24.0703 35.7891 24.0469 35.4219 24.4141L35.2344 24.6016V31.0547V37.5H32.4609H29.6875V34.2266C29.6875 32.2812 29.6562 30.8672 29.6094 30.75C29.5703 30.6406 29.4219 30.4766 29.2812 30.3906C29.0391 30.2422 28.8828 30.2344 26.3438 30.2344C23.5 30.2344 23.2422 30.2656 23.0547 30.6094C23 30.7188 22.9688 31.875 22.9688 34.1328V37.5H20.2344H17.5V21.4844V5.46875H26.3672H35.2344V11.9453V18.4141L35.4219 18.6172C35.6719 18.8828 36.0781 18.9609 36.4062 18.7891C36.8984 18.5312 36.8828 18.8281 36.8594 11.2031L36.8359 4.28125L36.5781 4.05469L36.3281 3.82812H35.2422H34.1484L34.125 2.53125L34.1016 1.23438L33.8828 1.04688L33.6641 0.859375H26.4766H19.2812L19.0547 1.08594ZM32.5 3.16406V3.82812H26.4844H20.4688V3.16406V2.5H26.4844H32.5V3.16406ZM8.20312 15.9766V16.7969H6.32812H4.45312V15.9766V15.1562H6.32812H8.20312V15.9766ZM15.8594 27.9688V37.5H14.2578H12.6562V35.5781V33.6562L12.4297 33.4297L12.2031 33.2031H10.1562C8.90625 33.2031 8.05469 33.2344 7.96094 33.2812C7.61719 33.4688 7.57812 33.7109 7.57812 35.6641V37.5H6.01562H4.45312V27.9688V18.4375H10.1562H15.8594V27.9688ZM28.0469 34.6875V37.5H26.3281H24.6094V34.6875V31.875H26.3281H28.0469V34.6875ZM11.0156 36.1719V37.5H10.1172H9.21875V36.1719V34.8438H10.1172H11.0156V36.1719Z" fill="#0C32DE"/>
<path d="M6.39067 20.3828L6.13286 20.6093L6.10942 25.7578C6.0938 29.5234 6.11724 30.9531 6.17974 31.1171C6.38286 31.5937 7.12505 31.7187 7.50786 31.3359L7.73442 31.1093V25.9453C7.73442 22.1171 7.71099 20.7343 7.64067 20.5859C7.42974 20.125 6.78911 20.0234 6.39067 20.3828Z" fill="#0C32DE"/>
<path d="M9.5625 20.4219L9.29688 20.6875V25.8203C9.29688 29.4453 9.32031 31 9.38281 31.1172C9.625 31.5938 10.2812 31.7188 10.6797 31.375L10.8984 31.1875L10.9219 26C10.9375 22.2032 10.9141 20.7657 10.8516 20.6016C10.7422 20.3438 10.4141 20.1563 10.0703 20.1563C9.89844 20.1563 9.75 20.2344 9.5625 20.4219Z" fill="#0C32DE"/>
<path d="M12.7656 20.4218L12.5 20.6875V25.8203C12.5 29.4453 12.5234 31 12.5859 31.1171C12.7891 31.5156 13.3594 31.6953 13.7578 31.4843C14.1406 31.2734 14.1406 31.3046 14.1406 25.8671C14.1406 22.0937 14.1172 20.7343 14.0469 20.5859C13.9375 20.3359 13.6094 20.1562 13.2734 20.1562C13.1016 20.1562 12.9531 20.2343 12.7656 20.4218Z" fill="#0C32DE"/>
<path d="M20.3672 8.42188L20.1562 8.64062V10.6172C20.1562 11.8203 20.1875 12.6484 20.2344 12.7422C20.4219 13.0859 20.6641 13.125 22.6641 13.125H24.5469L24.8125 12.8594L25.0781 12.5938V10.7109C25.0781 8.71094 25.0391 8.46875 24.6953 8.28125C24.6016 8.23438 23.7656 8.20312 22.5625 8.20312H20.5781L20.3672 8.42188ZM23.4375 10.6641V11.4844H22.6172H21.7969V10.6641V9.84375H22.6172H23.4375V10.6641Z" fill="#0C32DE"/>
<path d="M27.6953 8.39063C27.4297 8.65626 27.4062 8.88282 27.4375 10.875L27.4609 12.6563L27.6797 12.8672L27.8906 13.0859L29.8281 13.1094C31.9687 13.1328 32.0547 13.1094 32.2812 12.6563C32.4062 12.4219 32.4218 12.1406 32.4218 10.6563C32.4218 9.62501 32.3906 8.83595 32.3359 8.68751C32.1718 8.21876 32.0859 8.20313 29.8828 8.20313H27.8828L27.6953 8.39063ZM30.7812 10.6641V11.4844H29.9218H29.0625V10.6641V9.84376H29.9218H30.7812V10.6641Z" fill="#0C32DE"/>
<path d="M20.5781 15.0781C20.1797 15.2344 20.1562 15.3594 20.1562 17.4844V19.4688L20.3828 19.6953L20.6094 19.9219H22.5781C23.7734 19.9219 24.6016 19.8906 24.6953 19.8438C25.0391 19.6562 25.0781 19.4141 25.0781 17.4141V15.5312L24.8125 15.2656L24.5469 15L22.6484 15.0078C21.6016 15.0078 20.6641 15.0391 20.5781 15.0781ZM23.4375 17.4609V18.2812H22.6172H21.7969V17.4609V16.6406H22.6172H23.4375V17.4609Z" fill="#0C32DE"/>
<path d="M27.7187 15.2266L27.4609 15.4531L27.4374 17.2422C27.4218 18.2188 27.4374 19.1406 27.4609 19.2891C27.4843 19.4297 27.6015 19.6328 27.7109 19.7344L27.914 19.9219H29.9218H31.9296L32.1328 19.7188C32.2499 19.6094 32.3593 19.3984 32.3828 19.2656C32.414 19.1328 32.4218 18.2188 32.4062 17.2344L32.3828 15.4531L32.1249 15.2266L31.8749 15H29.9218H27.9687L27.7187 15.2266ZM30.7812 17.4609V18.2812H29.9218H29.0624V17.4609V16.6406H29.9218H30.7812V17.4609Z" fill="#0C32DE"/>
<path d="M35.6094 20.8984C35.4922 20.9609 35.3594 21.0859 35.3125 21.1718C35.1953 21.3828 35.2187 21.8906 35.3516 22.0781C35.5078 22.3125 35.8828 22.4453 36.1953 22.3906C36.8359 22.2734 37.0547 21.4218 36.5625 20.9765C36.3594 20.7968 35.8672 20.75 35.6094 20.8984Z" fill="#0C32DE"/>
<path d="M20.7266 21.8515C20.6328 21.8671 20.4688 21.9765 20.3594 22.0859L20.1562 22.289V24.289C20.1562 26.4765 20.1641 26.5312 20.6094 26.7109C20.7656 26.7812 21.3906 26.7968 22.7266 26.7812L24.625 26.7578L24.8516 26.5L25.0781 26.25V24.375C25.0781 23.3515 25.0469 22.4218 25 22.3125C24.9609 22.2031 24.8359 22.0546 24.7109 21.9765C24.5234 21.8515 24.2891 21.8359 22.6953 21.8281C21.7109 21.8203 20.8203 21.8281 20.7266 21.8515ZM23.4375 24.2968V25.1562H22.6172H21.7969V24.2968V23.4375H22.6172H23.4375V24.2968Z" fill="#0C32DE"/>
<path d="M27.9844 21.8828C27.8281 21.9297 27.6719 22.0547 27.5781 22.2109C27.4375 22.4375 27.4219 22.6094 27.4219 24.2969C27.4219 25.9922 27.4375 26.1484 27.5781 26.3906C27.6641 26.5313 27.8281 26.6797 27.9375 26.7188C28.0469 26.7656 28.9453 26.7969 29.9297 26.7969C31.4062 26.7969 31.7656 26.7734 31.9609 26.6719C32.375 26.4609 32.4219 26.2109 32.4219 24.2813C32.4219 22.2891 32.375 22.0703 31.875 21.8984C31.5391 21.7891 28.3672 21.7734 27.9844 21.8828ZM30.7812 24.2969V25.1563H29.9219H29.0625V24.2969V23.4375H29.9219H30.7812V24.2969Z" fill="#0C32DE"/>
</g>
<defs>
<clipPath id="clip0_362_2091">
<rect width="40" height="40" fill="white"/>
</clipPath>
</defs>
</svg>
